<?xml version="1.0" encoding="UTF-8" standalone="no"?>
<svg xmlns:dc="http://purl.org/dc/elements/1.1/" xmlns:cc="http://creativecommons.org/ns#" xmlns:rdf="http://www.w3.org/1999/02/22-rdf-syntax-ns#" xmlns:svg="http://www.w3.org/2000/svg" xmlns="http://www.w3.org/2000/svg" xmlns:sodipodi="http://sodipodi.sourceforge.net/DTD/sodipodi-0.dtd" xmlns:inkscape="http://www.inkscape.org/namespaces/inkscape" sodipodi:docname="1.svg" inkscape:version="0.91 r" version="1.1" id="svg6485" viewBox="0 0 32 32" height="32" width="32">
  <sodipodi:namedview inkscape:snap-bbox-edge-midpoints="true" inkscape:bbox-nodes="true" inkscape:snap-bbox="true" inkscape:guide-bbox="true" showguides="false" inkscape:snap-global="true" inkscape:window-maximized="1" inkscape:window-y="24" inkscape:window-x="57" inkscape:window-height="744" inkscape:window-width="1309" units="px" showgrid="true" inkscape:current-layer="layer1" inkscape:document-units="px" inkscape:cy="16" inkscape:cx="16" inkscape:zoom="18.96875" inkscape:pageshadow="2" inkscape:pageopacity="0.0" borderopacity="1.0" bordercolor="#666666" pagecolor="#ffffff" id="base" inkscape:lockguides="false" inkscape:showpageshadow="false">
    <inkscape:grid empspacing="4" id="grid4145" type="xygrid"/>
  </sodipodi:namedview>
  <defs id="defs6487">
    <inkscape:path-effect effect="spiro" id="path-effect5218" is_visible="true"/>
    <inkscape:path-effect effect="spiro" id="path-effect5214" is_visible="true"/>
    <inkscape:path-effect effect="spiro" id="path-effect5206" is_visible="true"/>
    <inkscape:path-effect effect="spiro" id="path-effect5190" is_visible="true"/>
    <inkscape:path-effect effect="spiro" id="path-effect5191" is_visible="true"/>
    <inkscape:path-effect effect="spiro" id="path-effect5187" is_visible="true"/>
    <inkscape:path-effect is_visible="true" id="path-effect7721" effect="spiro"/>
    <inkscape:path-effect is_visible="true" id="path-effect7716" effect="spiro"/>
    <inkscape:path-effect effect="spiro" id="path-effect7712" is_visible="true"/>
    <inkscape:path-effect is_visible="true" id="path-effect7708" effect="spiro"/>
    <inkscape:path-effect is_visible="true" id="path-effect7704" effect="spiro"/>
    <inkscape:path-effect is_visible="true" id="path-effect7605" effect="spiro"/>
    <inkscape:path-effect effect="spiro" id="path-effect7601" is_visible="true"/>
    <inkscape:path-effect effect="spiro" id="path-effect7597" is_visible="true"/>
    <inkscape:path-effect is_visible="true" id="path-effect7593" effect="spiro"/>
    <inkscape:path-effect is_visible="true" id="path-effect7589" effect="spiro"/>
    <inkscape:path-effect effect="spiro" id="path-effect7585" is_visible="true"/>
    <inkscape:path-effect is_visible="true" id="path-effect7581" effect="spiro"/>
    <inkscape:path-effect effect="spiro" id="path-effect7577" is_visible="true"/>
    <inkscape:path-effect effect="spiro" id="path-effect7573" is_visible="true"/>
    <inkscape:path-effect is_visible="true" id="path-effect7569" effect="spiro"/>
    <inkscape:path-effect is_visible="true" id="path-effect7565" effect="spiro"/>
    <inkscape:path-effect effect="spiro" id="path-effect7561" is_visible="true"/>
    <inkscape:path-effect effect="spiro" id="path-effect7557" is_visible="true"/>
    <inkscape:path-effect is_visible="true" id="path-effect7553" effect="spiro"/>
    <inkscape:path-effect is_visible="true" id="path-effect7545" effect="spiro"/>
    <inkscape:path-effect effect="spiro" id="path-effect7541" is_visible="true"/>
    <inkscape:path-effect effect="spiro" id="path-effect7537" is_visible="true"/>
    <inkscape:path-effect is_visible="true" id="path-effect7533" effect="spiro"/>
    <inkscape:path-effect effect="spiro" id="path-effect7529" is_visible="true"/>
    <inkscape:path-effect effect="spiro" id="path-effect7525" is_visible="true"/>
    <inkscape:path-effect is_visible="true" id="path-effect7521" effect="spiro"/>
    <inkscape:path-effect effect="spiro" id="path-effect7403" is_visible="true"/>
    <inkscape:path-effect is_visible="true" id="path-effect7399" effect="spiro"/>
    <inkscape:path-effect effect="spiro" id="path-effect7395" is_visible="true"/>
    <inkscape:path-effect is_visible="true" id="path-effect7391" effect="spiro"/>
    <inkscape:path-effect effect="spiro" id="path-effect7387" is_visible="true"/>
    <inkscape:path-effect is_visible="true" id="path-effect7383" effect="spiro"/>
    <inkscape:path-effect effect="spiro" id="path-effect7379" is_visible="true"/>
    <inkscape:path-effect is_visible="true" id="path-effect7375" effect="spiro"/>
    <inkscape:path-effect effect="spiro" id="path-effect7335" is_visible="true"/>
    <inkscape:path-effect is_visible="true" id="path-effect7331" effect="spiro"/>
    <inkscape:path-effect effect="spiro" id="path-effect7326" is_visible="true"/>
    <inkscape:path-effect is_visible="true" id="path-effect7322" effect="spiro"/>
    <inkscape:path-effect effect="spiro" id="path-effect7318" is_visible="true"/>
    <inkscape:path-effect is_visible="true" id="path-effect7314" effect="spiro"/>
    <inkscape:path-effect is_visible="true" id="path-effect7290" effect="spiro"/>
    <inkscape:path-effect effect="spiro" id="path-effect7286" is_visible="true"/>
    <inkscape:path-effect is_visible="true" id="path-effect7282" effect="spiro"/>
    <inkscape:path-effect effect="spiro" id="path-effect7278" is_visible="true"/>
    <inkscape:path-effect is_visible="true" id="path-effect7274" effect="spiro"/>
    <inkscape:path-effect is_visible="true" id="path-effect7241" effect="spiro"/>
    <inkscape:path-effect is_visible="true" id="path-effect7237" effect="spiro"/>
    <inkscape:path-effect is_visible="true" id="path-effect7233" effect="spiro"/>
    <inkscape:path-effect is_visible="true" id="path-effect7219" effect="spiro"/>
    <inkscape:path-effect is_visible="true" id="path-effect7192" effect="spiro"/>
    <inkscape:path-effect effect="spiro" id="path-effect7091" is_visible="true"/>
    <inkscape:path-effect is_visible="true" id="path-effect7087" effect="spiro"/>
    <inkscape:path-effect effect="spiro" id="path-effect7083" is_visible="true"/>
    <inkscape:path-effect effect="spiro" id="path-effect7079" is_visible="true"/>
    <inkscape:path-effect is_visible="true" id="path-effect7075" effect="spiro"/>
    <inkscape:path-effect effect="spiro" id="path-effect6990" is_visible="true"/>
    <inkscape:path-effect is_visible="true" id="path-effect6986" effect="spiro"/>
    <inkscape:path-effect is_visible="true" id="path-effect6982" effect="spiro"/>
    <inkscape:path-effect effect="spiro" id="path-effect6978" is_visible="true"/>
    <inkscape:path-effect effect="spiro" id="path-effect6974" is_visible="true"/>
    <inkscape:path-effect is_visible="true" id="path-effect6970" effect="spiro"/>
    <inkscape:path-effect is_visible="true" id="path-effect6854" effect="spiro"/>
    <inkscape:path-effect effect="spiro" id="path-effect6850" is_visible="true"/>
    <inkscape:path-effect is_visible="true" id="path-effect6846" effect="spiro"/>
    <inkscape:path-effect is_visible="true" id="path-effect6842" effect="spiro"/>
    <inkscape:path-effect effect="spiro" id="path-effect6838" is_visible="true"/>
    <inkscape:path-effect is_visible="true" id="path-effect6834" effect="spiro"/>
    <inkscape:path-effect effect="spiro" id="path-effect6830" is_visible="true"/>
    <inkscape:path-effect is_visible="true" id="path-effect6826" effect="spiro"/>
    <inkscape:path-effect effect="spiro" id="path-effect6822" is_visible="true"/>
    <inkscape:path-effect is_visible="true" id="path-effect6818" effect="spiro"/>
    <inkscape:path-effect effect="spiro" id="path-effect6814" is_visible="true"/>
    <inkscape:path-effect is_visible="true" id="path-effect6810" effect="spiro"/>
    <inkscape:path-effect is_visible="true" id="path-effect6733" effect="spiro"/>
    <inkscape:path-effect effect="spiro" id="path-effect6729" is_visible="true"/>
    <inkscape:path-effect is_visible="true" id="path-effect6725" effect="spiro"/>
    <inkscape:path-effect is_visible="true" id="path-effect6709" effect="spiro"/>
    <inkscape:path-effect is_visible="true" id="path-effect6705" effect="spiro"/>
    <inkscape:path-effect effect="spiro" id="path-effect6701" is_visible="true"/>
    <inkscape:path-effect is_visible="true" id="path-effect6697" effect="spiro"/>
    <inkscape:path-effect effect="spiro" id="path-effect6693" is_visible="true"/>
    <inkscape:path-effect is_visible="true" id="path-effect6689" effect="spiro"/>
    <inkscape:path-effect effect="spiro" id="path-effect6685" is_visible="true"/>
    <inkscape:path-effect is_visible="true" id="path-effect6681" effect="spiro"/>
    <inkscape:path-effect effect="spiro" id="path-effect6654" is_visible="true"/>
    <inkscape:path-effect is_visible="true" id="path-effect6649" effect="spiro"/>
    <inkscape:path-effect effect="spiro" id="path-effect6644" is_visible="true"/>
    <inkscape:path-effect is_visible="true" id="path-effect6641" effect="spiro"/>
    <inkscape:path-effect is_visible="true" id="path-effect6638" effect="spiro"/>
    <inkscape:path-effect effect="spiro" id="path-effect6634" is_visible="true"/>
    <inkscape:path-effect is_visible="true" id="path-effect6630" effect="spiro"/>
    <inkscape:path-effect is_visible="true" id="path-effect6568" effect="spiro"/>
    <inkscape:path-effect effect="spiro" id="path-effect6564" is_visible="true"/>
    <inkscape:path-effect is_visible="true" id="path-effect6560" effect="spiro"/>
    <inkscape:path-effect effect="spiro" id="path-effect6556" is_visible="true"/>
    <inkscape:path-effect is_visible="true" id="path-effect6552" effect="spiro"/>
    <inkscape:path-effect is_visible="true" id="path-effect6547" effect="spiro"/>
    <inkscape:path-effect is_visible="true" id="path-effect6527" effect="spiro"/>
    <inkscape:path-effect effect="spiro" id="path-effect6481" is_visible="true"/>
    <inkscape:path-effect is_visible="true" id="path-effect6477" effect="spiro"/>
    <inkscape:path-effect effect="spiro" id="path-effect6473" is_visible="true"/>
    <inkscape:path-effect is_visible="true" id="path-effect6469" effect="spiro"/>
    <inkscape:path-effect effect="spiro" id="path-effect6465" is_visible="true"/>
    <inkscape:path-effect is_visible="true" id="path-effect6461" effect="spiro"/>
    <inkscape:path-effect effect="spiro" id="path-effect6457" is_visible="true"/>
    <inkscape:path-effect is_visible="true" id="path-effect6453" effect="spiro"/>
    <inkscape:path-effect is_visible="true" id="path-effect6441" effect="spiro"/>
    <inkscape:path-effect is_visible="true" id="path-effect6397" effect="spiro"/>
    <inkscape:path-effect effect="spiro" id="path-effect6393" is_visible="true"/>
    <inkscape:path-effect effect="spiro" id="path-effect6389" is_visible="true"/>
    <inkscape:path-effect is_visible="true" id="path-effect6385" effect="spiro"/>
    <inkscape:path-effect is_visible="true" id="path-effect6381" effect="spiro"/>
    <inkscape:path-effect effect="spiro" id="path-effect6377" is_visible="true"/>
    <inkscape:path-effect effect="spiro" id="path-effect6373" is_visible="true"/>
    <inkscape:path-effect is_visible="true" id="path-effect6369" effect="spiro"/>
    <inkscape:path-effect is_visible="true" id="path-effect6353" effect="spiro"/>
    <inkscape:path-effect effect="spiro" id="path-effect6349" is_visible="true"/>
    <inkscape:path-effect is_visible="true" id="path-effect6345" effect="spiro"/>
    <inkscape:path-effect effect="spiro" id="path-effect6337" is_visible="true"/>
    <inkscape:path-effect is_visible="true" id="path-effect6333" effect="spiro"/>
    <inkscape:path-effect effect="spiro" id="path-effect6329" is_visible="true"/>
    <inkscape:path-effect effect="spiro" id="path-effect6320" is_visible="true"/>
    <inkscape:path-effect is_visible="true" id="path-effect6316" effect="spiro"/>
    <inkscape:path-effect effect="spiro" id="path-effect6312" is_visible="true"/>
    <inkscape:path-effect is_visible="true" id="path-effect6308" effect="spiro"/>
    <inkscape:path-effect effect="spiro" id="path-effect6260" is_visible="true"/>
    <inkscape:path-effect is_visible="true" id="path-effect6256" effect="spiro"/>
    <inkscape:path-effect effect="spiro" id="path-effect6252" is_visible="true"/>
    <inkscape:path-effect is_visible="true" id="path-effect6248" effect="spiro"/>
    <inkscape:path-effect is_visible="true" id="path-effect6203" effect="spiro"/>
    <inkscape:path-effect is_visible="true" id="path-effect6200" effect="spiro"/>
    <inkscape:path-effect is_visible="true" id="path-effect6197" effect="spiro"/>
    <inkscape:path-effect effect="spiro" id="path-effect6157" is_visible="true"/>
    <inkscape:path-effect effect="spiro" id="path-effect6154" is_visible="true"/>
    <inkscape:path-effect effect="spiro" id="path-effect6151" is_visible="true"/>
    <inkscape:path-effect is_visible="true" id="path-effect6024" effect="spiro"/>
    <inkscape:path-effect effect="spiro" id="path-effect6016" is_visible="true"/>
    <inkscape:path-effect is_visible="true" id="path-effect6009" effect="spiro"/>
    <inkscape:path-effect is_visible="true" id="path-effect5903" effect="spiro"/>
    <inkscape:path-effect effect="spiro" id="path-effect5899" is_visible="true"/>
    <inkscape:path-effect effect="spiro" id="path-effect5861" is_visible="true"/>
    <inkscape:path-effect is_visible="true" id="path-effect5857" effect="spiro"/>
    <inkscape:path-effect is_visible="true" id="path-effect5720" effect="spiro"/>
    <inkscape:path-effect effect="spiro" id="path-effect5714" is_visible="true"/>
    <inkscape:path-effect is_visible="true" id="path-effect5708" effect="spiro"/>
    <inkscape:path-effect is_visible="true" id="path-effect5702" effect="spiro"/>
    <inkscape:path-effect effect="spiro" id="path-effect5698" is_visible="true"/>
    <inkscape:path-effect effect="spiro" id="path-effect5690" is_visible="true"/>
    <inkscape:path-effect effect="spiro" id="path-effect5684" is_visible="true"/>
    <inkscape:path-effect is_visible="true" id="path-effect5680" effect="spiro"/>
    <inkscape:path-effect effect="spiro" id="path-effect5551" is_visible="true"/>
    <inkscape:path-effect is_visible="true" id="path-effect5545" effect="spiro"/>
    <inkscape:path-effect effect="spiro" id="path-effect5539" is_visible="true"/>
    <inkscape:path-effect effect="spiro" id="path-effect5535" is_visible="true"/>
    <inkscape:path-effect is_visible="true" id="path-effect5531" effect="spiro"/>
    <inkscape:path-effect is_visible="true" id="path-effect5527" effect="spiro"/>
    <inkscape:path-effect effect="spiro" id="path-effect5521" is_visible="true"/>
    <inkscape:path-effect effect="spiro" id="path-effect5515" is_visible="true"/>
    <inkscape:path-effect is_visible="true" id="path-effect5511" effect="spiro"/>
    <inkscape:path-effect effect="spiro" id="path-effect5507" is_visible="true"/>
    <inkscape:path-effect is_visible="true" id="path-effect5503" effect="spiro"/>
    <inkscape:path-effect effect="spiro" id="path-effect5499" is_visible="true"/>
    <inkscape:path-effect is_visible="true" id="path-effect5495" effect="spiro"/>
    <inkscape:path-effect effect="spiro" id="path-effect5491" is_visible="true"/>
    <inkscape:path-effect is_visible="true" id="path-effect5487" effect="spiro"/>
    <inkscape:path-effect is_visible="true" id="path-effect5483" effect="spiro"/>
    <inkscape:path-effect effect="spiro" id="path-effect5479" is_visible="true"/>
    <inkscape:path-effect is_visible="true" id="path-effect5475" effect="spiro"/>
    <inkscape:path-effect effect="spiro" id="path-effect5471" is_visible="true"/>
    <inkscape:path-effect effect="spiro" id="path-effect5467" is_visible="true"/>
    <inkscape:path-effect is_visible="true" id="path-effect5463" effect="spiro"/>
    <inkscape:path-effect is_visible="true" id="path-effect5346" effect="spiro"/>
    <inkscape:path-effect effect="spiro" id="path-effect5342" is_visible="true"/>
    <inkscape:path-effect is_visible="true" id="path-effect5338" effect="spiro"/>
    <inkscape:path-effect effect="spiro" id="path-effect5334" is_visible="true"/>
    <inkscape:path-effect effect="spiro" id="path-effect5330" is_visible="true"/>
    <inkscape:path-effect is_visible="true" id="path-effect5326" effect="spiro"/>
    <inkscape:path-effect effect="spiro" id="path-effect5322" is_visible="true"/>
    <inkscape:path-effect is_visible="true" id="path-effect5318" effect="spiro"/>
    <inkscape:path-effect effect="spiro" id="path-effect5201" is_visible="true"/>
    <inkscape:path-effect is_visible="true" id="path-effect5195" effect="spiro"/>
    <inkscape:path-effect effect="spiro" id="path-effect5189" is_visible="true"/>
    <inkscape:path-effect effect="spiro" id="path-effect5185" is_visible="true"/>
    <inkscape:path-effect is_visible="true" id="path-effect5181" effect="spiro"/>
    <inkscape:path-effect effect="spiro" id="path-effect5173" is_visible="true"/>
    <inkscape:path-effect is_visible="true" id="path-effect5165" effect="spiro"/>
    <inkscape:path-effect is_visible="true" id="path-effect5105" effect="spiro"/>
    <inkscape:path-effect effect="spiro" id="path-effect5101" is_visible="true"/>
    <inkscape:path-effect is_visible="true" id="path-effect5097" effect="spiro"/>
    <inkscape:path-effect effect="spiro" id="path-effect5093" is_visible="true"/>
    <inkscape:path-effect is_visible="true" id="path-effect5089" effect="spiro"/>
    <inkscape:path-effect effect="spiro" id="path-effect5085" is_visible="true"/>
    <inkscape:path-effect is_visible="true" id="path-effect5081" effect="spiro"/>
    <inkscape:path-effect effect="spiro" id="path-effect5077" is_visible="true"/>
    <inkscape:path-effect effect="spiro" id="path-effect5073" is_visible="true"/>
    <inkscape:path-effect is_visible="true" id="path-effect5067" effect="spiro"/>
    <inkscape:path-effect effect="spiro" id="path-effect5061" is_visible="true"/>
    <inkscape:path-effect effect="spiro" id="path-effect5055" is_visible="true"/>
    <inkscape:path-effect is_visible="true" id="path-effect5047" effect="spiro"/>
    <inkscape:path-effect effect="spiro" id="path-effect5043" is_visible="true"/>
    <inkscape:path-effect effect="spiro" id="path-effect5036" is_visible="true"/>
    <inkscape:path-effect is_visible="true" id="path-effect5033" effect="spiro"/>
    <inkscape:path-effect effect="spiro" id="path-effect5030" is_visible="true"/>
    <inkscape:path-effect is_visible="true" id="path-effect5027" effect="spiro"/>
    <inkscape:path-effect effect="spiro" id="path-effect5024" is_visible="true"/>
    <inkscape:path-effect is_visible="true" id="path-effect5021" effect="spiro"/>
    <inkscape:path-effect effect="spiro" id="path-effect5018" is_visible="true"/>
    <inkscape:path-effect is_visible="true" id="path-effect5015" effect="spiro"/>
    <inkscape:path-effect effect="spiro" id="path-effect5012" is_visible="true"/>
    <inkscape:path-effect is_visible="true" id="path-effect5009" effect="spiro"/>
    <inkscape:path-effect effect="spiro" id="path-effect5006" is_visible="true"/>
    <inkscape:path-effect is_visible="true" id="path-effect5003" effect="spiro"/>
    <inkscape:path-effect effect="spiro" id="path-effect5000" is_visible="true"/>
    <inkscape:path-effect is_visible="true" id="path-effect4992" effect="spiro"/>
    <inkscape:path-effect effect="spiro" id="path-effect4989" is_visible="true"/>
    <inkscape:path-effect is_visible="true" id="path-effect4986" effect="spiro"/>
    <inkscape:path-effect effect="spiro" id="path-effect4983" is_visible="true"/>
    <inkscape:path-effect is_visible="true" id="path-effect4980" effect="spiro"/>
    <inkscape:path-effect effect="spiro" id="path-effect4977" is_visible="true"/>
    <inkscape:path-effect is_visible="true" id="path-effect4889" effect="spiro"/>
    <inkscape:path-effect effect="spiro" id="path-effect4885" is_visible="true"/>
    <inkscape:path-effect is_visible="true" id="path-effect4881" effect="spiro"/>
    <inkscape:path-effect effect="spiro" id="path-effect4877" is_visible="true"/>
    <inkscape:path-effect is_visible="true" id="path-effect4873" effect="spiro"/>
    <inkscape:path-effect effect="spiro" id="path-effect4869" is_visible="true"/>
    <inkscape:path-effect is_visible="true" id="path-effect4855" effect="spiro"/>
    <inkscape:path-effect effect="spiro" id="path-effect4851" is_visible="true"/>
    <inkscape:path-effect is_visible="true" id="path-effect4847" effect="spiro"/>
    <inkscape:path-effect effect="spiro" id="path-effect4843" is_visible="true"/>
    <inkscape:path-effect is_visible="true" id="path-effect4839" effect="spiro"/>
    <inkscape:path-effect effect="spiro" id="path-effect4835" is_visible="true"/>
    <inkscape:path-effect is_visible="true" id="path-effect4831" effect="spiro"/>
    <inkscape:path-effect effect="spiro" id="path-effect4827" is_visible="true"/>
    <inkscape:path-effect is_visible="true" id="path-effect4823" effect="spiro"/>
    <inkscape:path-effect effect="spiro" id="path-effect4819" is_visible="true"/>
    <inkscape:path-effect is_visible="true" id="path-effect4815" effect="spiro"/>
    <inkscape:path-effect effect="spiro" id="path-effect4811" is_visible="true"/>
    <inkscape:path-effect is_visible="true" id="path-effect4806" effect="spiro"/>
    <inkscape:path-effect is_visible="true" id="path-effect4751" effect="spiro"/>
    <inkscape:path-effect effect="spiro" id="path-effect4747" is_visible="true"/>
    <inkscape:path-effect is_visible="true" id="path-effect4743" effect="spiro"/>
    <inkscape:path-effect effect="spiro" id="path-effect4739" is_visible="true"/>
    <inkscape:path-effect is_visible="true" id="path-effect4735" effect="spiro"/>
    <inkscape:path-effect effect="spiro" id="path-effect4642" is_visible="true"/>
    <inkscape:path-effect is_visible="true" id="path-effect4638" effect="spiro"/>
    <inkscape:path-effect effect="spiro" id="path-effect4407" is_visible="true"/>
    <inkscape:path-effect is_visible="true" id="path-effect4403" effect="spiro"/>
    <inkscape:path-effect effect="spiro" id="path-effect4399" is_visible="true"/>
    <inkscape:path-effect is_visible="true" id="path-effect4395" effect="spiro"/>
    <inkscape:path-effect effect="spiro" id="path-effect4391" is_visible="true"/>
    <inkscape:path-effect is_visible="true" id="path-effect4387" effect="spiro"/>
    <inkscape:path-effect effect="spiro" id="path-effect4383" is_visible="true"/>
    <inkscape:path-effect is_visible="true" id="path-effect4379" effect="spiro"/>
    <inkscape:path-effect effect="spiro" id="path-effect4374" is_visible="true"/>
    <inkscape:path-effect is_visible="true" id="path-effect4370" effect="spiro"/>
    <inkscape:path-effect effect="spiro" id="path-effect4366" is_visible="true"/>
    <inkscape:path-effect is_visible="true" id="path-effect4362" effect="spiro"/>
    <inkscape:path-effect effect="spiro" id="path-effect4358" is_visible="true"/>
    <inkscape:path-effect is_visible="true" id="path-effect4354" effect="spiro"/>
    <inkscape:path-effect effect="spiro" id="path-effect4350" is_visible="true"/>
    <inkscape:path-effect is_visible="true" id="path-effect4346" effect="spiro"/>
    <inkscape:path-effect effect="spiro" id="path-effect4342" is_visible="true"/>
    <inkscape:path-effect is_visible="true" id="path-effect4338" effect="spiro"/>
    <inkscape:path-effect effect="spiro" id="path-effect4334" is_visible="true"/>
    <inkscape:path-effect is_visible="true" id="path-effect4330" effect="spiro"/>
    <inkscape:path-effect effect="spiro" id="path-effect4326" is_visible="true"/>
    <inkscape:path-effect is_visible="true" id="path-effect4322" effect="spiro"/>
    <inkscape:path-effect effect="spiro" id="path-effect4816" is_visible="true"/>
    <inkscape:path-effect is_visible="true" id="path-effect4813" effect="spiro"/>
    <inkscape:path-effect is_visible="true" id="path-effect4810" effect="spiro"/>
    <inkscape:path-effect effect="spiro" id="path-effect4807" is_visible="true"/>
    <inkscape:path-effect effect="spiro" id="path-effect4804" is_visible="true"/>
    <inkscape:path-effect is_visible="true" id="path-effect4801" effect="spiro"/>
    <inkscape:path-effect is_visible="true" id="path-effect4798" effect="spiro"/>
    <inkscape:path-effect effect="spiro" id="path-effect4795" is_visible="true"/>
    <inkscape:path-effect effect="spiro" id="path-effect4792" is_visible="true"/>
    <inkscape:path-effect is_visible="true" id="path-effect4789" effect="spiro"/>
    <inkscape:path-effect is_visible="true" id="path-effect4786" effect="spiro"/>
    <inkscape:path-effect effect="spiro" id="path-effect4783" is_visible="true"/>
    <inkscape:path-effect is_visible="true" id="path-effect4728" effect="spiro"/>
    <inkscape:path-effect effect="spiro" id="path-effect4724" is_visible="true"/>
    <inkscape:path-effect effect="spiro" id="path-effect4720" is_visible="true"/>
    <inkscape:path-effect is_visible="true" id="path-effect4716" effect="spiro"/>
    <inkscape:path-effect is_visible="true" id="path-effect4712" effect="spiro"/>
    <inkscape:path-effect effect="spiro" id="path-effect4708" is_visible="true"/>
    <inkscape:path-effect effect="spiro" id="path-effect4704" is_visible="true"/>
    <inkscape:path-effect is_visible="true" id="path-effect4700" effect="spiro"/>
    <inkscape:path-effect is_visible="true" id="path-effect4696" effect="spiro"/>
    <inkscape:path-effect effect="spiro" id="path-effect4692" is_visible="true"/>
    <inkscape:path-effect effect="spiro" id="path-effect4688" is_visible="true"/>
    <inkscape:path-effect is_visible="true" id="path-effect4684" effect="spiro"/>
    <inkscape:path-effect effect="spiro" id="path-effect4680" is_visible="true"/>
    <inkscape:path-effect effect="spiro" id="path-effect4676" is_visible="true"/>
    <inkscape:path-effect is_visible="true" id="path-effect4672" effect="spiro"/>
    <inkscape:path-effect is_visible="true" id="path-effect4668" effect="spiro"/>
    <inkscape:path-effect effect="spiro" id="path-effect4664" is_visible="true"/>
    <inkscape:path-effect effect="spiro" id="path-effect4660" is_visible="true"/>
    <inkscape:path-effect is_visible="true" id="path-effect4656" effect="spiro"/>
    <inkscape:path-effect is_visible="true" id="path-effect4652" effect="spiro"/>
    <inkscape:path-effect effect="spiro" id="path-effect4648" is_visible="true"/>
    <inkscape:path-effect effect="spiro" id="path-effect4644" is_visible="true"/>
    <inkscape:path-effect is_visible="true" id="path-effect4624" effect="spiro"/>
    <inkscape:path-effect effect="spiro" id="path-effect4620" is_visible="true"/>
    <inkscape:path-effect effect="spiro" id="path-effect4616" is_visible="true"/>
    <inkscape:path-effect is_visible="true" id="path-effect4612" effect="spiro"/>
    <inkscape:path-effect effect="spiro" id="path-effect4603" is_visible="true"/>
    <inkscape:path-effect is_visible="true" id="path-effect4600" effect="spiro"/>
    <inkscape:path-effect effect="spiro" id="path-effect4597" is_visible="true"/>
    <inkscape:path-effect is_visible="true" id="path-effect4594" effect="spiro"/>
    <inkscape:path-effect effect="spiro" id="path-effect4591" is_visible="true"/>
    <inkscape:path-effect is_visible="true" id="path-effect4588" effect="spiro"/>
    <inkscape:path-effect effect="spiro" id="path-effect4585" is_visible="true"/>
    <inkscape:path-effect is_visible="true" id="path-effect4542" effect="spiro"/>
    <inkscape:path-effect effect="spiro" id="path-effect4538" is_visible="true"/>
    <inkscape:path-effect is_visible="true" id="path-effect4534" effect="spiro"/>
    <inkscape:path-effect effect="spiro" id="path-effect4530" is_visible="true"/>
    <inkscape:path-effect is_visible="true" id="path-effect4526" effect="spiro"/>
    <inkscape:path-effect effect="spiro" id="path-effect4522" is_visible="true"/>
    <inkscape:path-effect is_visible="true" id="path-effect4518" effect="spiro"/>
    <inkscape:path-effect effect="spiro" id="path-effect4295" is_visible="true"/>
    <inkscape:path-effect is_visible="true" id="path-effect4291" effect="spiro"/>
    <inkscape:path-effect is_visible="true" id="path-effect4287" effect="spiro"/>
    <inkscape:path-effect effect="spiro" id="path-effect4283" is_visible="true"/>
    <inkscape:path-effect effect="spiro" id="path-effect4279" is_visible="true"/>
    <inkscape:path-effect is_visible="true" id="path-effect4275" effect="spiro"/>
    <inkscape:path-effect is_visible="true" id="path-effect4157" effect="spiro"/>
    <inkscape:path-effect is_visible="true" id="path-effect4153" effect="spiro"/>
    <inkscape:path-effect effect="spiro" id="path-effect4239" is_visible="true"/>
    <inkscape:path-effect is_visible="true" id="path-effect4223" effect="spiro"/>
    <inkscape:path-effect effect="spiro" id="path-effect4217" is_visible="true"/>
    <inkscape:path-effect is_visible="true" id="path-effect4213" effect="spiro"/>
    <inkscape:path-effect is_visible="true" id="path-effect5296" effect="spiro"/>
    <inkscape:path-effect is_visible="true" id="path-effect7060" effect="spiro"/>
    <inkscape:path-effect effect="spiro" id="path-effect6771" is_visible="true"/>
    <inkscape:path-effect is_visible="true" id="path-effect6833" effect="spiro"/>
    <inkscape:path-effect effect="spiro" id="path-effect6839" is_visible="true"/>
    <inkscape:path-effect is_visible="true" id="path-effect6848" effect="spiro"/>
    <inkscape:path-effect effect="spiro" id="path-effect6856" is_visible="true"/>
  </defs>
  
  <g transform="translate(0,-1020.3622)" id="layer1" inkscape:groupmode="layer" inkscape:label="Layer 1">
    <g aria-label="A" style="font-style:normal;font-weight:normal;font-size:1.33333337px;line-height:1.25;font-family:sans-serif;letter-spacing:0px;word-spacing:0px;fill:#000000;fill-opacity:1;stroke:none" id="text5755"/>
    <g aria-label="1" style="font-style:normal;font-weight:normal;font-size:1.33333337px;line-height:1.25;font-family:sans-serif;letter-spacing:0px;word-spacing:0px;fill:#000000;fill-opacity:1;stroke:none" id="text5759"/>
    <g id="g6647" transform="translate(14.554567,2.8613639)"/>
    <path inkscape:connector-curvature="0" style="color:#000000;font-style:normal;font-variant:normal;font-weight:normal;font-stretch:normal;font-size:medium;line-height:normal;font-family:sans-serif;text-indent:0;text-align:start;text-decoration:none;text-decoration-line:none;text-decoration-style:solid;text-decoration-color:#000000;letter-spacing:normal;word-spacing:normal;text-transform:none;direction:ltr;block-progression:tb;writing-mode:lr-tb;baseline-shift:baseline;text-anchor:start;white-space:normal;clip-rule:nonzero;display:inline;overflow:visible;visibility:visible;opacity:1;isolation:auto;mix-blend-mode:normal;color-interpolation:sRGB;color-interpolation-filters:linearRGB;solid-color:#000000;solid-opacity:1;fill:#000000;fill-opacity:1;fill-rule:nonzero;stroke:none;stroke-width:1;stroke-linecap:butt;stroke-linejoin:round;stroke-miterlimit:4;stroke-dasharray:none;stroke-dashoffset:0;stroke-opacity:1;paint-order:fill markers stroke;color-rendering:auto;image-rendering:auto;shape-rendering:auto;text-rendering:auto;enable-background:accumulate" d="m 15.999853,1021.8574 c -1.93627,10e-5 -3.79557,0.7521 -5.19141,2.0918 -0.9749,0.6941 -1.56068,0.7711 -2.21484,0.6641 -0.65709,-0.1076 -1.41421,-0.4807 -2.4707004,-0.75 -0.32636,-0.083 -0.64005,0.1733 -0.62305,0.5097 0.0667,1.3092 0.33637,2.2981 0.88867,3.084 0.5,0.7115 1.2153404,1.2229 2.1113304,1.6973 -0.64501,1.0198 -1.15782,2.1104 -1.5293004,3.248 -0.0508,0.028 -0.10165,0.049 -0.15234,0.08 a 0.50005,0.50005 0 0 0 -0.004,0 c -1.17589,0.7242 -1.76424,1.9651 -1.92773,3.3281 -0.1635,1.363 0.0674,2.8776 0.51758,4.336 0.45017,1.4585 1.12332,2.8592 1.8906204,3.9804 0.7673,1.1212 1.60552,1.9829 2.54492,2.3008 a 0.50005,0.50005 0 0 0 0.58204,-0.207 c 0.0998,0.1175 0.21092,0.2255 0.31445,0.3398 -0.14743,0.232 -0.23624,0.5044 -0.23624,0.7969 l 0,1 -3.5,0 -1.0000004,0 0,0.01 a 0.50005,0.50005 0 0 0 -0.0332,0.01 l -3.60157,1 a 0.50005,0.50005 0 0 0 0,0.9629 l 3.60157,1 a 0.50005,0.50005 0 0 0 0.0332,0.01 l 0,0.012 1.0000004,0 19.5,0 2.5,0 c 0.54535,0 1,-0.4546 1,-1 l 0,-1 c 0,-0.5453 -0.45465,-1 -1,-1 l -2.5,0 -5,0 0,-1 c 0,-0.2925 -0.0888,-0.5649 -0.23633,-0.7969 0.10262,-0.1133 0.21162,-0.2214 0.31055,-0.3379 a 0.50005,0.50005 0 0 0 0.58594,0.211 c 0.9394,-0.3179 1.77761,-1.1796 2.54492,-2.3008 0.7673,-1.1212 1.44045,-2.522 1.89062,-3.9805 0.45017,-1.4584 0.68108,-2.9729 0.51758,-4.3359 -0.1635,-1.363 -0.75184,-2.6039 -1.92773,-3.3281 a 0.50005,0.50005 0 0 0 -0.004,0 c -0.05,-0.03 -0.10028,-0.05 -0.15039,-0.078 -0.37168,-1.1403 -0.8848,-2.2337 -1.53125,-3.2558 0.89899,-0.4747 1.63435,-0.9891 2.14844,-1.7051 0.56774,-0.7907 0.84048,-1.7915 0.85156,-3.0957 0.004,-0.3283 -0.30478,-0.571 -0.62305,-0.4902 -1.05649,0.2693 -1.81427,0.6424 -2.47265,0.75 -0.65399,0.1068 -1.24277,0.03 -2.21875,-0.6602 -1.3937,-1.3395 -3.251,-2.093 -5.18555,-2.0957 z m 0,1 c 1.69337,0 3.31737,0.6669 4.5293,1.8496 0.0189,0.018 0.0391,0.034 0.0605,0.049 1.13328,0.8067 2.10467,0.9862 2.97657,0.8438 0.59356,-0.097 1.16232,-0.3243 1.74023,-0.5234 -0.0956,0.6751 -0.16776,1.3671 -0.4707,1.789 -0.33923,0.4725 -0.83603,0.8625 -1.50782,1.2461 -0.42405,-1.3023 -1.63804,-2.2539 -3.07808,-2.2539 -1.78901,0 -3.25,1.461 -3.25,3.25 0,0.4805 0.11196,0.9325 0.30078,1.3438 l -0.94726,-0.9473 a 0.50005,0.50005 0 0 0 -0.36133,-0.1465 0.50005,0.50005 0 0 0 -0.34571,0.1465 l -0.94726,0.9473 c 0.18882,-0.4113 0.30078,-0.8633 0.30078,-1.3438 0,-1.789 -1.46099,-3.25 -3.25,-3.25 -1.44069,0 -2.65457,0.9526 -3.07812,2.2559 -0.66076,-0.3789 -1.13526,-0.7615 -1.46485,-1.2305 -0.2923904,-0.4161 -0.3832804,-1.1213 -0.4980504,-1.8008 0.5716804,0.1975 1.1372604,0.4215 1.7246104,0.5176 0.87075,0.1425 1.84022,-0.037 2.96875,-0.8438 0.0208,-0.015 0.0403,-0.031 0.0586,-0.049 1.21416,-1.1849 2.84253,-1.8495 4.53906,-1.8496 z m -4.25,4 c 1.24857,0 2.25,1.0014 2.25,2.25 0,1.2486 -1.00143,2.25 -2.25,2.25 -1.24857,0 -2.25,-1.0014 -2.25,-2.25 0,-1.2486 1.00143,-2.25 2.25,-2.25 z m 8.5,0 c 1.24857,0 2.25,1.0014 2.25,2.25 0,1.2486 -1.00143,2.25 -2.25,2.25 -1.24857,0 -2.25,-1.0014 -2.25,-2.25 0,-1.2486 1.00143,-2.25 2.25,-2.25 z m -8.5,1 a 1.2500086,1.2500086 0 0 0 -0.76758,0.2637 0.50001293,0.50001293 0 0 1 0.11719,-0.014 0.50001293,0.50001293 0 0 1 0.5,0.5 0.50001293,0.50001293 0 0 1 -0.5,0.5 0.50001293,0.50001293 0 0 1 -0.5,-0.4863 1.2500086,1.2500086 0 0 0 -0.0996,0.4863 1.2500086,1.2500086 0 0 0 1.25,1.25 1.2500086,1.2500086 0 0 0 1.25,-1.25 1.2500086,1.2500086 0 0 0 -1.25,-1.25 z m 8.5,0 a 1.2500086,1.2500086 0 0 0 -0.76758,0.2637 0.50001293,0.50001293 0 0 1 0.11719,-0.014 0.50001293,0.50001293 0 0 1 0.5,0.5 0.50001293,0.50001293 0 0 1 -0.5,0.5 0.50001293,0.50001293 0 0 1 -0.5,-0.4863 1.2500086,1.2500086 0 0 0 -0.09961,0.4863 1.2500086,1.2500086 0 0 0 1.25,1.25 1.2500086,1.2500086 0 0 0 1.25,-1.25 1.2500086,1.2500086 0 0 0 -1.25,-1.25 z m -11.40039,2.6836 c 0.53303,1.0702 1.62821,1.8164 2.90039,1.8164 0.87614,0 1.67014,-0.3542 2.25586,-0.9219 a 0.50005,0.50005 0 0 0 0.0469,0.1465 l 1.5,3 a 0.50005,0.50005 0 0 0 0.89454,0 l 1.5,-3 a 0.50005,0.50005 0 0 0 0.0469,-0.1465 c 0.58572,0.5677 1.37972,0.9219 2.25586,0.9219 1.27218,0 2.36736,-0.7462 2.90039,-1.8164 0.2502,0.4688 0.47723,0.9483 0.66992,1.4414 -0.19934,-0.032 -0.39703,-0.051 -0.58984,-0.047 l 0,-0.01 c -0.62585,0.014 -1.20815,0.2136 -1.69141,0.5489 -0.96652,0.6707 -1.56626,1.8288 -1.60351,3.0722 a 0.50005,0.50005 0 0 0 0,0.01 c -0.0228,1.2631 0.47142,2.8542 0.90625,4.6602 0.21829,0.9067 0.42401,1.8589 0.55468,2.8242 a 0.50005,0.50005 0 0 0 -0.89654,0.3125 c 0,0.2857 -0.21435,0.5 -0.5,0.5 -0.28565,0 -0.5,-0.2143 -0.5,-0.5 a 0.50005,0.50005 0 0 0 -0.50781,-0.5059 0.50005,0.50005 0 0 0 -0.49219,0.5059 c 0,0.8224 0.67765,1.5 1.5,1.5 0.70383,0 1.29737,-0.4995 1.45508,-1.1582 0.0309,0.32 0.0592,0.6394 0.0684,0.959 -0.32045,0.4499 -0.67352,0.8749 -1.04688,1.2832 -0.15065,-0.052 -0.30959,-0.084 -0.4766,-0.084 -0.3883,0 -0.73233,0.1719 -1,0.418 -0.26767,-0.2461 -0.6117,-0.418 -1,-0.418 -0.82235,0 -1.5,0.6777 -1.5,1.5 l 0,1 -1,0 0,-1 c 0,-0.8223 -0.67765,-1.5 -1.5,-1.5 -0.3883,0 -0.73233,0.1719 -1,0.418 -0.26767,-0.2461 -0.6117,-0.418 -1,-0.418 -0.16701,0 -0.32595,0.033 -0.47656,0.084 -0.37301,-0.4079 -0.72668,-0.8318 -1.04688,-1.2813 0.009,-0.3208 0.0374,-0.6415 0.0684,-0.9629 0.157,0.6596 0.75056,1.1602 1.45504,1.1602 0.82235,0 1.5,-0.6776 1.5,-1.5 a 0.50005,0.50005 0 1 0 -1,0 c 0,0.2857 -0.21435,0.5 -0.5,0.5 -0.28565,0 -0.5,-0.2143 -0.5,-0.5 a 0.50005,0.50005 0 0 0 -0.50781,-0.5059 0.50005,0.50005 0 0 0 -0.38867,0.1954 c 0.13061,-0.9679 0.33581,-1.923 0.55468,-2.8321 0.43483,-1.806 0.92903,-3.397 0.90625,-4.6601 a 0.50005,0.50005 0 0 0 0,-0.012 c -0.0372,-1.2434 -0.63699,-2.4015 -1.60351,-3.0722 -0.48326,-0.3353 -1.06556,-0.5344 -1.69141,-0.5488 l 0,0.01 c -0.19148,0 -0.388,0.014 -0.58594,0.045 0,0 0,0 0,0 0.19181,-0.4897 0.41748,-0.966 0.66602,-1.4317 z m 7.15039,0.023 0.89258,0.8926 -0.89258,1.7832 -0.89258,-1.7832 0.89258,-0.8926 z m -7.25195,2.3438 c 0.42537,0.01 0.80523,0.1566 1.14257,0.3906 0.67274,0.4668 1.1433,1.3438 1.17383,2.2754 0.0173,0.9608 -0.43677,2.5719 -0.8789,4.4082 -0.3639,1.5114 -0.6314,3.2051 -0.64453,4.918 -0.46332,-0.3369 -0.93328,-0.6221 -1.42188,-1.336 -0.70141,-1.025 -1.3396604,-2.3498 -1.7597604,-3.7109 -0.42012,-1.361 -0.61793,-2.7597 -0.47852,-3.9219 0.13928,-1.1611 0.58371,-2.0546 1.4570304,-2.5937 0,0 0.002,0 0.002,0 0.5145,-0.3107 0.98408,-0.4378 1.40821,-0.4278 l 0,0 z m 14.5039,0 c 0.42484,-0.01 0.89466,0.1178 1.41016,0.4297 0.87332,0.5391 1.31775,1.4326 1.45703,2.5937 0.13941,1.1622 -0.0584,2.5609 -0.47852,3.9219 -0.4201,1.3611 -1.05835,2.6859 -1.75976,3.7109 -0.4886,0.7139 -0.95855,0.9991 -1.42188,1.336 -0.0131,-1.7129 -0.28063,-3.4066 -0.64453,-4.918 -0.44213,-1.8363 -0.89623,-3.4474 -0.8789,-4.4082 0.0305,-0.9316 0.5011,-1.8086 1.17383,-2.2754 0.33735,-0.234 0.7172,-0.3805 1.14257,-0.3906 z m -15.24023,1.2187 a 0.50005,0.50005 0 0 0 -0.38281,0.1778 c -0.9230404,1.0616 -1.0778804,2.5714 -0.6777404,4.33 a 0.50005,0.50005 0 1 0 0.9746104,-0.2226 c -0.36166,-1.5894 -0.1952,-2.6988 0.45899,-3.4512 a 0.50005,0.50005 0 0 0 -0.37305,-0.834 z m 6.98047,5.7227 a 0.50005,0.50005 0 0 0 -0.49219,0.5078 c 0,0.2857 -0.21435,0.5 -0.5,0.5 -0.28565,0 -0.5,-0.2143 -0.5,-0.5 a 0.50005,0.50005 0 0 0 -0.50781,-0.5059 0.50005,0.50005 0 0 0 -0.49219,0.5059 c 0,0.8224 0.67765,1.5 1.5,1.5 0.82235,0 1.5,-0.6776 1.5,-1.5 a 0.50005,0.50005 0 0 0 -0.50781,-0.5078 z m 4,0 a 0.50005,0.50005 0 0 0 -0.49219,0.5078 c 0,0.2857 -0.21435,0.5 -0.5,0.5 -0.28565,0 -0.5,-0.2143 -0.5,-0.5 a 0.50005,0.50005 0 0 0 -0.50781,-0.5059 0.50005,0.50005 0 0 0 -0.49219,0.5059 c 0,0.8224 0.67765,1.5 1.5,1.5 0.82235,0 1.5,-0.6776 1.5,-1.5 a 0.50005,0.50005 0 0 0 -0.50781,-0.5078 z m -10.93555,0.1074 a 0.50005,0.50005 0 0 0 -0.46875,0.6895 c 0.10986,0.2799 0.22961,0.5648 0.35938,0.8574 a 0.50005,0.50005 0 1 0 0.91406,-0.4043 c -0.12437,-0.2804 -0.23768,-0.5532 -0.3418,-0.8184 a 0.50005,0.50005 0 0 0 -0.46289,-0.3242 z m 8.93555,2.8926 a 0.50005,0.50005 0 0 0 -0.49219,0.5078 c 0,0.2857 -0.21435,0.5 -0.5,0.5 -0.28565,0 -0.5,-0.2143 -0.5,-0.5 a 0.50005,0.50005 0 0 0 -0.50781,-0.5059 0.50005,0.50005 0 0 0 -0.49219,0.5059 c 0,0.8224 0.67765,1.5 1.5,1.5 0.82235,0 1.5,-0.6776 1.5,-1.5 a 0.50005,0.50005 0 0 0 -0.50781,-0.5078 z m -4.99219,4.0078 c 0.28565,0 0.5,0.2144 0.5,0.5 a 0.50005,0.50005 0 0 0 1,0 c 0,-0.2856 0.21435,-0.5 0.5,-0.5 0.28565,0 0.5,0.2144 0.5,0.5 l 0,1 c 0,0.2857 -0.21435,0.5 -0.5,0.5 -0.28565,0 -0.5,-0.2143 -0.5,-0.5 a 0.50005,0.50005 0 0 0 -1,0 c 0,0.2857 -0.21435,0.5 -0.5,0.5 -0.28565,0 -0.5,-0.2143 -0.5,-0.5 l 0,-1 c 0,-0.2856 0.21435,-0.5 0.5,-0.5 z m 6,0 c 0.28565,0 0.5,0.2144 0.5,0.5 a 0.50005,0.50005 0 0 0 1,0 c 0,-0.2856 0.21435,-0.5 0.5,-0.5 0.28565,0 0.5,0.2144 0.5,0.5 l 0,1 c 0,0.2857 -0.21435,0.5 -0.5,0.5 -0.28565,0 -0.5,-0.2143 -0.5,-0.5 a 0.50005,0.50005 0 0 0 -1,0 c 0,0.2857 -0.21435,0.5 -0.5,0.5 -0.28565,0 -0.5,-0.2143 -0.5,-0.5 l 0,-1 c 0,-0.2856 0.21435,-0.5 0.5,-0.5 z m -11,2.5 3.89453,0 c 0.27534,0.3033 0.66797,0.5 1.10547,0.5 0.38828,0 0.73233,-0.1699 1,-0.416 0.26767,0.2461 0.61172,0.416 1,0.416 0.4375,0 0.83013,-0.1967 1.10547,-0.5 l 1.78906,0 c 0.27534,0.3033 0.66797,0.5 1.10547,0.5 0.38828,0 0.73233,-0.1699 1,-0.416 0.26767,0.2461 0.61172,0.416 1,0.416 0.4375,0 0.83013,-0.1967 1.10547,-0.5 l 4.89453,0 0,1 -19,0 0,-1 z m 20,0 2,0 0,1 -2,0 0,-1 z m -21.0000004,0.047 0,0.9062 -1.63281,-0.4531 1.63281,-0.4531 z" id="path6981"/>
  </g>
  <style type="text/css" id="style5178">
	.st0{fill:#030102;}
</style>

	<metadata>
		<rdf:RDF xmlns:rdf="http://www.w3.org/1999/02/22-rdf-syntax-ns#" xmlns:rdfs="http://www.w3.org/2000/01/rdf-schema#" xmlns:dc="http://purl.org/dc/elements/1.1/">
			<rdf:Description about="https://iconscout.com/legal#licenses" dc:title="Education-education owl-graduation-owl-university-wisdom" dc:description="Education-education owl-graduation-owl-university-wisdom" dc:publisher="Iconscout" dc:date="2017-07-10" dc:format="image/svg+xml" dc:language="en">
				<dc:creator>
					<rdf:Bag>
						<rdf:li>Devendra Karkar</rdf:li>
					</rdf:Bag>
				</dc:creator>
			</rdf:Description>
		</rdf:RDF>
    </metadata></svg>
